<svg width="1080" height="612" viewBox="0 0 1080 612" fill="none" xmlns="http://www.w3.org/2000/svg">
<path d="M202.085 474.864C173.689 544.678 190.185 584.08 202.085 605.765C92.5561 589.898 108.29 501.837 127.443 454.237C166.387 357.45 340.011 300.329 357.048 216.235C365.862 172.731 337.576 132.934 317.293 111.514C364.35 146.421 380.372 163.875 387.879 216.235C400.048 301.122 233.676 397.194 202.085 474.864Z" fill="#D64045"></path>
<path d="M245.086 277.322C334.007 273.514 337.847 205.922 328.652 171.808C309.18 256.237 238.595 226.548 219.935 220.995C202.841 215.908 145.734 182.215 92.5563 195.608C39.0087 209.095 12.2349 249.555 21.9709 303.502C30.8478 352.689 101.677 382.043 136.368 350.309C161.519 327.303 155.028 297.949 146.104 287.636C148.051 327.62 114.462 330.74 97.4243 327.303C50.3673 316.196 73.8222 249.11 116.085 251.142C165.576 253.522 196.406 279.407 245.086 277.322Z" fill="#D64045"></path>
<path d="M280.784 142.454C280.784 167.048 254.551 191.113 239.406 201.162C275.916 139.281 193.972 124.262 193.972 71.8472C193.972 35.3536 224.261 16.5779 241.029 6C194.016 69.6546 280.784 90.6961 280.784 142.454Z" fill="#D64045"></path>
<path d="M973.354 604.362C956.079 604.362 940.82 602.087 927.576 597.536C914.619 592.985 904.543 586.791 897.345 578.954C890.147 570.864 886.548 562.015 886.548 552.408V548.236C886.548 545.708 887.988 544.444 890.867 544.444H921.961C924.84 544.444 926.28 545.708 926.28 548.236V550.132C926.28 557.211 930.599 563.405 939.236 568.715C948.161 574.024 959.39 576.678 972.922 576.678C985.878 576.678 996.387 574.277 1004.45 569.473C1012.51 564.417 1016.54 558.096 1016.54 550.512C1016.54 543.18 1012.8 537.744 1005.31 534.205C997.826 530.412 985.734 526.494 969.035 522.448C952.624 518.403 938.804 514.358 927.576 510.313C916.635 506.015 907.278 500.074 899.504 492.489C892.018 484.652 888.275 474.665 888.275 462.53C888.275 445.591 895.761 432.192 910.733 422.332C925.992 412.219 946.146 407.162 971.194 407.162C987.893 407.162 1002.58 409.564 1015.24 414.368C1028.2 418.918 1038.13 425.365 1045.04 433.708C1051.95 442.052 1055.41 451.406 1055.41 461.772V462.909C1055.41 465.437 1053.97 466.702 1051.09 466.702H1020.86C1017.98 466.702 1016.54 465.437 1016.54 462.909V461.772C1016.54 454.44 1012.37 448.372 1004.02 443.568C995.955 438.512 984.87 435.984 970.762 435.984C958.094 435.984 947.729 438.133 939.668 442.431C931.894 446.729 928.007 452.544 928.007 459.875C928.007 467.207 931.75 472.769 939.236 476.562C947.01 480.354 959.39 484.399 976.377 488.697C993.076 492.742 1006.9 496.787 1017.84 500.832C1029.06 504.625 1038.57 510.439 1046.34 518.277C1054.11 525.862 1058 535.848 1058 548.236C1058 565.428 1050.23 579.08 1034.68 589.193C1019.42 599.306 998.978 604.362 973.354 604.362Z" fill="black"></path>
<path d="M845.028 435.225C845.028 437.754 843.588 439.018 840.709 439.018H794.067C792.916 439.018 792.34 439.523 792.34 440.535V541.031C792.34 551.649 795.075 559.36 800.545 564.164C806.016 568.715 814.509 570.99 826.026 570.99H838.55C841.429 570.99 842.868 572.254 842.868 574.782V598.295C842.868 600.823 841.429 602.087 838.55 602.087C829.337 602.593 822.715 602.845 818.684 602.845C796.802 602.845 780.247 599.432 769.019 592.606C758.078 585.527 752.608 572.633 752.608 553.925V440.535C752.608 439.523 752.032 439.018 750.88 439.018H724.536C721.657 439.018 720.218 437.754 720.218 435.225V412.851C720.218 410.323 721.657 409.058 724.536 409.058H750.88C752.032 409.058 752.608 408.553 752.608 407.542V362.792C752.608 360.264 754.047 359 756.927 359H788.021C790.9 359 792.34 360.264 792.34 362.792V407.542C792.34 408.553 792.916 409.058 794.067 409.058H840.709C843.588 409.058 845.028 410.323 845.028 412.851V435.225Z" fill="black"></path>
<path d="M596.804 406.025C614.367 406.025 629.626 408.806 642.582 414.368C655.826 419.677 665.903 427.262 672.813 437.122C680.011 446.729 683.61 457.726 683.61 470.115V598.295C683.61 600.823 682.17 602.087 679.291 602.087H646.469C643.59 602.087 642.151 600.823 642.151 598.295V584.642C642.151 583.378 641.431 583.125 639.991 583.884C632.505 590.71 623.292 596.019 612.352 599.812C601.699 603.351 589.75 605.121 576.506 605.121C555.201 605.121 537.494 600.444 523.387 591.089C509.567 581.482 502.657 567.071 502.657 547.857C502.657 528.137 510.43 512.715 525.978 501.591C541.813 490.214 563.838 484.525 592.054 484.525H640.423C641.575 484.525 642.151 484.02 642.151 483.008V472.769C642.151 461.645 638.408 453.049 630.922 446.982C623.724 440.661 612.639 437.501 597.668 437.501C585.576 437.501 575.643 439.65 567.869 443.948C560.383 447.993 555.777 453.555 554.049 460.634C553.186 463.162 551.458 464.3 548.867 464.047L513.885 459.875C511.006 459.37 509.711 458.358 509.999 456.842C512.302 441.925 521.371 429.79 537.206 420.435C553.042 410.828 572.908 406.025 596.804 406.025ZM585.576 574.403C600.835 574.403 614.079 570.864 625.308 563.785C636.536 556.706 642.151 547.731 642.151 536.859V514.485C642.151 513.473 641.575 512.968 640.423 512.968H599.827C582.841 512.968 569.309 515.875 559.232 521.69C549.155 527.505 544.116 535.595 544.116 545.961C544.116 555.315 547.859 562.394 555.345 567.198C563.119 572.001 573.195 574.403 585.576 574.403Z" fill="black"></path>
<path d="M464.976 481.492C466.128 491.857 466.56 503.487 466.272 516.381C466.272 518.909 464.832 520.173 461.953 520.173H324.187C323.035 520.173 322.459 520.679 322.459 521.69C322.459 530.286 323.323 536.859 325.051 541.41C328.218 551.523 334.552 559.487 344.053 565.302C353.842 570.864 366.078 573.645 380.762 573.645C402.067 573.645 418.478 565.934 429.995 550.512C431.434 547.983 433.306 547.604 435.609 549.374L460.226 563.785C462.241 565.302 462.673 566.945 461.521 568.715C453.46 580.092 441.943 589.067 426.972 595.64C412.288 602.213 395.589 605.5 376.875 605.5C355.857 605.5 338.151 601.455 323.755 593.365C309.359 585.274 298.563 573.771 291.365 558.855C284.455 543.938 281 525.862 281 504.625C281 486.169 282.584 472.137 285.751 462.53C290.933 445.085 301.298 431.307 316.845 421.194C332.392 411.081 351.251 406.025 373.42 406.025C402.499 406.025 424.237 412.472 438.632 425.365C453.028 438.006 461.809 456.715 464.976 481.492ZM373.42 437.501C361.04 437.501 350.819 440.282 342.757 445.844C334.696 451.153 329.225 458.358 326.346 467.46C324.331 473.022 323.035 480.101 322.459 488.697C322.459 489.708 323.035 490.214 324.187 490.214H423.085C424.237 490.214 424.812 489.708 424.812 488.697C424.237 480.354 423.373 474.16 422.221 470.115C419.342 460.255 413.584 452.417 404.946 446.602C396.597 440.535 386.088 437.501 373.42 437.501Z" fill="black"></path>
</svg>